<?xml version="1.0" encoding="utf-8"?>
<!-- Generator: Adobe Illustrator 19.0.0, SVG Export Plug-In . SVG Version: 6.00 Build 0)  -->
<svg version="1.1" id="Layer_1" xmlns="http://www.w3.org/2000/svg" xmlns:xlink="http://www.w3.org/1999/xlink" x="0px" y="0px"
	 viewBox="0 0 512 512" style="enable-background:new 0 0 512 512;" xml:space="preserve">
<g id="XMLID_1_">
	<path id="XMLID_3_" d="M122.9,200.1c-9.3,9.3-9.3,24.2,0,33.5L241.1,351c9.3,9.3,23.3,9.3,32.6,0.9l116.4-115.4
		c4.7-4.7,7.4-11.2,7.4-16.8c0-5.6-2.8-12.1-6.5-16.8c-9.3-9.3-24.2-9.3-33.5,0L256,300.7l-99.6-100.5
		C147.1,190.8,132.2,190.8,122.9,200.1L122.9,200.1z"/>
	<path id="XMLID_6_" d="M0,256c0,141.5,114.5,256,256,256s256-114.5,256-256S397.5,0,256,0S0,114.5,0,256z M408.7,103.3
		c41,41,63.3,95,63.3,152.7s-22.3,112.6-63.3,152.7c-41,41-95,63.3-152.7,63.3s-112.6-22.3-152.7-63.3c-41-41-63.3-95-63.3-152.7
		s22.3-112.6,63.3-152.7c41-41,95-63.3,152.7-63.3S368.6,62.4,408.7,103.3z"/>
</g>
</svg>
